<?xml version="1.0" encoding="utf-8"?>
<!-- Generator: Adobe Illustrator 16.0.3, SVG Export Plug-In . SVG Version: 6.00 Build 0)  -->
<!DOCTYPE svg PUBLIC "-//W3C//DTD SVG 1.1//EN" "http://www.w3.org/Graphics/SVG/1.1/DTD/svg11.dtd">
<svg version="1.1" id="Capa_1" xmlns="http://www.w3.org/2000/svg" xmlns:xlink="http://www.w3.org/1999/xlink" x="0px" y="0px"
	 width="612px" height="792px" viewBox="0 0 612 792" enable-background="new 0 0 612 792" xml:space="preserve">
<g>
	<path fill-rule="evenodd" clip-rule="evenodd" fill="#FFFFFF" d="M412.103,311c7.715,4.962,6.098,12.338,4.531,19.293
		c-3.897,17.322-10.939,33.54-20.135,48.571c-8.885,14.527-19.576,27.942-28.65,42.363c-3.777,6.004-5.422,13.351-7.255,20.472
		c6.88-6.36,13.71-12.774,20.663-19.055c2.579-2.327,5.332-4.504,8.207-6.453c3.763-2.553,8.14-5.319,12.42-2.382
		c4.863,3.338,7.779,8.75,6.345,14.74c-1.237,5.167-4.056,9.955-6.399,15.436c7.093-2.479,14.733-4.367,21.65-7.74
		c12.932-6.307,25.465-13.435,38.113-20.314c3.146-1.713,6.554-5.104,9.598-1.234c3.141,3.991-0.34,7.688-3.454,9.51
		c-10.708,6.265-21.287,13.23-32.813,17.512c-17.491,6.496-35.725,11.004-53.67,16.267c-3.279,0.963-6.78,2.966-9.143-2.003
		c-1.608-3.38-0.646-5.035,2.504-5.898c9.859-2.701,17.325-8.784,23.507-16.61c1.186-1.502,2.285-3.534,2.332-5.351
		c0.054-2.14-0.749-4.526-1.919-6.324c-0.313-0.48-3.779,0.277-5.029,1.355c-8.495,7.331-16.832,14.85-25.12,22.415
		c-3.78,3.45-7.118,7.42-11.094,10.608c-1.794,1.438-4.658,1.544-7.036,2.255c-0.677-2.546-2.313-5.282-1.853-7.602
		c1.347-6.787,3.527-13.408,5.496-20.507c-11.395,5.842-22.441,11.643-33.62,17.172c-4.745,2.347-9.681,4.394-14.686,6.116
		c-14.278,4.916-23.647,1.617-31.906-11.157c-2.058-3.184-3.595-6.704-5.589-10.482c-5.227,4.049-10.205,8.689-15.905,12.134
		c-8.181,4.942-16.543,9.961-25.46,13.215c-10.879,3.97-19.391-0.517-23.519-11.433c-2.322-6.14-3.206-12.823-4.87-19.818
		c-4.718,3.13-9.482,6.567-14.507,9.566c-11.968,7.143-24.038,14.116-36.127,21.053c-1.692,0.972-3.679,1.55-5.604,1.974
		c-4.842,1.063-9.605-3.504-7.633-8c5.05-11.51,10.802-22.713,16.363-33.993c0.485-0.983,1.493-1.947,2.493-2.383
		c1.439-0.629,3.396-1.441,4.568-0.916c1.105,0.496,2.219,2.736,2.023,4.007c-0.439,2.847-1.313,5.772-2.684,8.3
		c-3.761,6.927-7.87,13.664-11.272,21.015c20.515-8.771,38.481-21.444,56.85-33.297c3.249,0.821,4.281,2.65,4.376,6.075
		c0.183,6.604,0.604,13.313,1.993,19.747c2.006,9.294,6.679,11.695,15.729,8.867c12.312-3.849,22.031-12.085,32.186-19.532
		c3.346-2.454,6.581-5.098,9.615-7.924c1.773-1.653,3.446-3.808,5.726-1.666c1.701,1.6,3.305,4.015,3.613,6.251
		c0.987,7.168,3.808,13.333,8.87,18.362c4.674,4.644,10.406,4.691,16.258,2.682c18.679-6.418,35.255-16.771,51.766-27.349
		c5.15-3.299,7.415-7.704,9.651-13.028c11.239-26.76,22.649-53.457,34.653-79.88c2.558-5.632,7.829-10.031,11.852-15
		C410.103,311,411.103,311,412.103,311z M379.498,389.211c13.755-20.652,26.124-42.101,30.006-67.343
		C396.088,342.71,388.254,366.08,379.498,389.211z"/>
	<path fill-rule="evenodd" clip-rule="evenodd" fill="#FFFFFF" d="M379.498,389.211c8.756-23.131,16.59-46.501,30.006-67.343
		C405.622,347.111,393.253,368.559,379.498,389.211z"/>
</g>
</svg>
